<svg width="81" height="80" viewBox="0 0 81 80" fill="none" xmlns="http://www.w3.org/2000/svg">
<path d="M40.5003 6.66675C39.7737 6.66675 39.0603 6.67342 38.3603 6.68342L36.307 6.74008L35.3103 6.78342L33.3803 6.89675L31.537 7.05008C15.587 8.59675 9.09699 15.0867 7.55033 31.0367L7.39699 32.8801L7.28366 34.8101C7.26699 35.1367 7.25033 35.4701 7.24033 35.8067L7.18366 37.8601L7.17033 38.9201L7.16699 40.0001C7.16699 40.7267 7.17366 41.4401 7.18366 42.1401L7.24033 44.1934L7.28366 45.1901L7.39699 47.1201L7.55033 48.9634C9.09699 64.9134 15.587 71.4034 31.537 72.9501L33.3803 73.1034L35.3103 73.2168C35.637 73.2334 35.9703 73.2501 36.307 73.2601L38.3603 73.3168L40.5003 73.3334L42.6403 73.3168L44.6937 73.2601L45.6903 73.2168L47.6203 73.1034L49.4637 72.9501C65.4137 71.4034 71.9037 64.9134 73.4503 48.9634L73.6037 47.1201L73.717 45.1901C73.7337 44.8634 73.7503 44.5301 73.7603 44.1934L73.817 42.1401L73.8337 40.0001L73.817 37.8601L73.7603 35.8067L73.717 34.8101L73.6037 32.8801L73.4503 31.0367C71.9037 15.0867 65.4137 8.59675 49.4637 7.05008L47.6203 6.89675L45.6903 6.78342C45.3582 6.7672 45.026 6.75275 44.6937 6.74008L42.6403 6.68342L41.5803 6.67008L40.5003 6.66675ZM48.1437 30.9767C48.7435 30.3789 49.5484 30.0318 50.3949 30.006C51.2414 29.9801 52.066 30.2775 52.7013 30.8376C53.3365 31.3977 53.7347 32.1786 53.815 33.0217C53.8953 33.8647 53.6517 34.7068 53.1337 35.3767L52.857 35.6901L39.5237 49.0234C38.9497 49.5973 38.186 49.9421 37.3759 49.993C36.5658 50.044 35.765 49.7976 35.1237 49.3001L34.8103 49.0234L28.1437 42.3567C27.5458 41.7569 27.1987 40.952 27.1729 40.1055C27.1471 39.259 27.4444 38.4344 28.0045 37.7992C28.5646 37.1639 29.3455 36.7657 30.1886 36.6854C31.0316 36.6051 31.8737 36.8487 32.5437 37.3667L32.857 37.6434L37.167 41.9501L48.1437 30.9767Z" fill="#52DF82"/>
</svg>
