<svg width="49" height="48" viewBox="0 0 49 48" fill="none" xmlns="http://www.w3.org/2000/svg">
<path d="M16.5 18L32.5 18M16.5 26L28.5 26M18.5 36H12.5C10.9087 36 9.38258 35.3679 8.25736 34.2426C7.13214 33.1174 6.5 31.5913 6.5 30L6.5 14C6.5 12.4087 7.13214 10.8826 8.25736 9.75736C9.38258 8.63214 10.9087 8 12.5 8L36.5 8C38.0913 8 39.6174 8.63214 40.7426 9.75736C41.8679 10.8826 42.5 12.4087 42.5 14V30C42.5 31.5913 41.8679 33.1174 40.7426 34.2426C39.6174 35.3679 38.0913 36 36.5 36H30.5L24.5 42L18.5 36Z" stroke="#ACAEAF" stroke-width="3" stroke-linecap="round" stroke-linejoin="round"/>
</svg>
