<svg width="16" height="16" viewBox="0 0 16 16" fill="none" xmlns="http://www.w3.org/2000/svg">
<path d="M5.33333 5.99984H10.6667M5.33333 8.6665H9.33333M6 11.9998H4C3.46957 11.9998 2.96086 11.7891 2.58579 11.4141C2.21071 11.039 2 10.5303 2 9.99984V4.6665C2 4.13607 2.21071 3.62736 2.58579 3.25229C2.96086 2.87722 3.46957 2.6665 4 2.6665H12C12.5304 2.6665 13.0391 2.87722 13.4142 3.25229C13.7893 3.62736 14 4.13607 14 4.6665V9.99984C14 10.5303 13.7893 11.039 13.4142 11.4141C13.0391 11.7891 12.5304 11.9998 12 11.9998H10L8 13.9998L6 11.9998Z" stroke="#ACAEAF" stroke-linecap="round" stroke-linejoin="round"/>
</svg>
