<svg width="26" height="24" viewBox="0 0 26 24" fill="none" xmlns="http://www.w3.org/2000/svg">
<path d="M3.88135 12H4.92772M13.2987 3V4M21.6698 12H22.7161M6.60193 5.6L7.33439 6.3M19.9956 5.6L19.2631 6.3M10.892 17H15.7054M10.1596 16C9.28114 15.3704 8.63225 14.4925 8.30484 13.4908C7.97742 12.4892 7.98809 11.4144 8.33534 10.4189C8.68258 9.4233 9.34879 8.55739 10.2396 7.94379C11.1304 7.33019 12.2007 7 13.2987 7C14.3968 7 15.4671 7.33019 16.3579 7.94379C17.2487 8.55739 17.9149 9.4233 18.2621 10.4189C18.6094 11.4144 18.6201 12.4892 18.2926 13.4908C17.9652 14.4925 17.3163 15.3704 16.4379 16C16.0293 16.3865 15.7217 16.8594 15.5399 17.3806C15.3582 17.9018 15.3073 18.4566 15.3915 19C15.3915 19.5304 15.171 20.0391 14.7785 20.4142C14.3861 20.7893 13.8538 21 13.2987 21C12.7437 21 12.2114 20.7893 11.8189 20.4142C11.4265 20.0391 11.206 19.5304 11.206 19C11.2902 18.4566 11.2393 17.9018 11.0575 17.3806C10.8758 16.8594 10.5681 16.3865 10.1596 16Z" stroke="#529BDF" stroke-width="1.5" stroke-linecap="round" stroke-linejoin="round"/>
</svg>
