<svg width="16" height="16" viewBox="0 0 16 16" fill="none" xmlns="http://www.w3.org/2000/svg">
<rect width="16" height="16" rx="4" fill="#B2B2B2"/>
<path fill-rule="evenodd" clip-rule="evenodd" d="M9.30557 8.87964C9.19463 8.6187 9.13916 8.34526 9.13916 8.05933C9.13916 7.77339 9.19463 7.50073 9.30557 7.24136C9.41807 6.98042 9.56807 6.7562 9.75557 6.5687C9.94463 6.37964 10.1688 6.22964 10.4282 6.1187C10.6892 6.0062 10.9626 5.94995 11.2485 5.94995C11.5345 5.94995 11.8071 6.0062 12.0665 6.1187C12.3274 6.22964 12.5517 6.37964 12.7392 6.5687C12.9282 6.7562 13.0782 6.98042 13.1892 7.24136C13.3017 7.50073 13.3579 7.77339 13.3579 8.05933C13.3579 8.34526 13.3017 8.6187 13.1892 8.87964C13.0782 9.13901 12.9282 9.36323 12.7392 9.55229C12.5517 9.73979 12.3274 9.88901 12.0665 9.99995C11.8071 10.1125 11.5345 10.1687 11.2485 10.1687C10.9626 10.1687 10.6892 10.1125 10.4282 9.99995C10.1688 9.88901 9.94463 9.73979 9.75557 9.55229C9.56807 9.36323 9.41807 9.13901 9.30557 8.87964ZM10.5923 7.40308C10.411 7.58433 10.3204 7.80308 10.3204 8.05933C10.3204 8.31558 10.411 8.53433 10.5923 8.71558C10.7735 8.89683 10.9923 8.98745 11.2485 8.98745C11.5048 8.98745 11.7235 8.89683 11.9048 8.71558C12.086 8.53433 12.1767 8.31558 12.1767 8.05933C12.1767 7.80308 12.086 7.58433 11.9048 7.40308C11.7235 7.22183 11.5048 7.1312 11.2485 7.1312C10.9923 7.1312 10.7735 7.22183 10.5923 7.40308Z" fill="#1D1D1D"/>
<path d="M8.39435 6.12104C8.65472 6.12104 8.84569 6.36586 8.78232 6.61841L7.89558 10.152C7.85093 10.3299 7.69102 10.4546 7.5076 10.4546H7.45792C7.19763 10.4546 7.00668 10.21 7.0699 9.95748L7.95473 6.42388C7.99931 6.24589 8.15926 6.12104 8.34275 6.12104H8.39435Z" fill="#1D1D1D"/>
<path d="M6.05244 6.1187C5.72625 6.1187 5.46182 6.38313 5.46182 6.70933V8.2937C5.46182 8.48433 5.38447 8.64761 5.22979 8.78354C5.07666 8.91948 4.8915 8.98745 4.67432 8.98745C4.45713 8.98745 4.27119 8.91948 4.1165 8.78354C3.96338 8.64761 3.88682 8.48433 3.88682 8.2937V6.70933C3.88682 6.38313 3.62238 6.1187 3.29619 6.1187C2.97 6.1187 2.70557 6.38313 2.70557 6.70933V8.2937C2.70557 8.6312 2.79385 8.94448 2.97041 9.23354C3.14697 9.52104 3.38604 9.74917 3.6876 9.91792C3.99072 10.0851 4.31963 10.1687 4.67432 10.1687C5.029 10.1687 5.35713 10.0851 5.65869 9.91792C5.96182 9.74917 6.20166 9.52104 6.37822 9.23354C6.55479 8.94448 6.64307 8.6312 6.64307 8.2937V6.70933C6.64307 6.38313 6.37863 6.1187 6.05244 6.1187Z" fill="#1D1D1D"/>
</svg>
