<svg width="16" height="16" viewBox="0 0 16 16" fill="none" xmlns="http://www.w3.org/2000/svg">
<rect width="16" height="16" rx="4" fill="#ACAEAF"/>
<path fill-rule="evenodd" clip-rule="evenodd" d="M9.30557 8.87968C9.19463 8.61874 9.13916 8.34531 9.13916 8.05937C9.13916 7.77343 9.19463 7.50077 9.30557 7.2414C9.41807 6.98046 9.56807 6.75624 9.75557 6.56874C9.94463 6.37968 10.1688 6.22968 10.4282 6.11874C10.6892 6.00624 10.9626 5.94999 11.2485 5.94999C11.5345 5.94999 11.8071 6.00624 12.0665 6.11874C12.3274 6.22968 12.5517 6.37968 12.7392 6.56874C12.9282 6.75624 13.0782 6.98046 13.1892 7.2414C13.3017 7.50077 13.3579 7.77343 13.3579 8.05937C13.3579 8.34531 13.3017 8.61874 13.1892 8.87968C13.0782 9.13906 12.9282 9.36327 12.7392 9.55234C12.5517 9.73984 12.3274 9.88906 12.0665 9.99999C11.8071 10.1125 11.5345 10.1687 11.2485 10.1687C10.9626 10.1687 10.6892 10.1125 10.4282 9.99999C10.1688 9.88906 9.94463 9.73984 9.75557 9.55234C9.56807 9.36327 9.41807 9.13906 9.30557 8.87968ZM10.5923 7.40312C10.411 7.58437 10.3204 7.80312 10.3204 8.05937C10.3204 8.31562 10.411 8.53437 10.5923 8.71562C10.7735 8.89687 10.9923 8.98749 11.2485 8.98749C11.5048 8.98749 11.7235 8.89687 11.9048 8.71562C12.086 8.53437 12.1767 8.31562 12.1767 8.05937C12.1767 7.80312 12.086 7.58437 11.9048 7.40312C11.7235 7.22187 11.5048 7.13124 11.2485 7.13124C10.9923 7.13124 10.7735 7.22187 10.5923 7.40312Z" fill="white"/>
<path d="M8.39435 6.12109C8.65472 6.12109 8.84569 6.3659 8.78232 6.61845L7.89558 10.152C7.85093 10.3299 7.69102 10.4547 7.5076 10.4547H7.45792C7.19763 10.4547 7.00668 10.21 7.0699 9.95752L7.95473 6.42392C7.99931 6.24593 8.15926 6.12109 8.34275 6.12109H8.39435Z" fill="white"/>
<path d="M6.05244 6.11874C5.72625 6.11874 5.46182 6.38317 5.46182 6.70937V8.29374C5.46182 8.48437 5.38447 8.64765 5.22979 8.78359C5.07666 8.91952 4.8915 8.98749 4.67432 8.98749C4.45713 8.98749 4.27119 8.91952 4.1165 8.78359C3.96338 8.64765 3.88682 8.48437 3.88682 8.29374V6.70937C3.88682 6.38317 3.62238 6.11874 3.29619 6.11874C2.97 6.11874 2.70557 6.38317 2.70557 6.70937V8.29374C2.70557 8.63124 2.79385 8.94452 2.97041 9.23359C3.14697 9.52109 3.38604 9.74921 3.6876 9.91796C3.99072 10.0851 4.31963 10.1687 4.67432 10.1687C5.029 10.1687 5.35713 10.0851 5.65869 9.91796C5.96182 9.74921 6.20166 9.52109 6.37822 9.23359C6.55479 8.94452 6.64307 8.63124 6.64307 8.29374V6.70937C6.64307 6.38317 6.37863 6.11874 6.05244 6.11874Z" fill="white"/>
</svg>
